<svg width="20" height="20" viewBox="0 0 20 20" fill="none" xmlns="http://www.w3.org/2000/svg">
<path d="M4.2199 19.6777L0 0.265403H2.91305L5.60707 14.5308H5.74578L8.62233 0.265403H11.2725L14.1564 14.5403H14.2878L16.9818 0.265403H19.8949L15.675 19.6777H13.0028L10.0095 6.05687H9.89268L6.89202 19.6777H4.2199Z" fill="#2A18FF"/>
<path d="M17.6199 5.36493C17.542 4.46761 17.2208 3.77251 16.6562 3.27962C16.0916 2.78041 15.381 2.53081 14.5243 2.53081C13.9111 2.53081 13.3805 2.65719 12.9328 2.90995C12.485 3.1564 12.137 3.49763 11.8887 3.93365C11.6454 4.36335 11.5237 4.85308 11.5237 5.40284C11.5237 5.86414 11.6064 6.26224 11.7719 6.59716C11.9423 6.93207 12.1637 7.21327 12.4363 7.44076C12.7137 7.66193 13.0106 7.84834 13.327 8C13.6434 8.14534 13.9476 8.2654 14.2396 8.36019L15.6998 8.85308C16.1768 9.00474 16.6659 9.21011 17.1673 9.46919C17.6686 9.72828 18.1334 10.0695 18.5617 10.4929C18.99 10.9163 19.3356 11.4408 19.5985 12.0664C19.8662 12.6919 20 13.4408 20 14.3128C20 15.4123 19.781 16.3886 19.3429 17.2417C18.9097 18.0948 18.2794 18.7678 17.452 19.2607C16.6294 19.7536 15.6341 20 14.4659 20C13.3465 20 12.3779 19.7694 11.5602 19.3081C10.7425 18.8468 10.1025 18.1927 9.64007 17.346C9.17768 16.4929 8.92215 15.4818 8.87348 14.3128H11.1367C11.1806 15.0142 11.3558 15.5987 11.6624 16.0664C11.9739 16.5276 12.3706 16.872 12.8524 17.0995C13.3392 17.3207 13.8721 17.4313 14.4513 17.4313C15.0889 17.4313 15.656 17.3017 16.1524 17.0427C16.6538 16.7773 17.048 16.4107 17.3352 15.9431C17.6223 15.4692 17.7659 14.9163 17.7659 14.2844C17.7659 13.7093 17.6394 13.2385 17.3863 12.872C17.1381 12.5055 16.7998 12.2022 16.3715 11.9621C15.948 11.722 15.4686 11.5103 14.9332 11.327L13.1664 10.7014C11.969 10.278 11.0199 9.65561 10.319 8.83412C9.62303 8.01264 9.27502 6.92575 9.27502 5.57346C9.27502 4.45498 9.50865 3.47867 9.97591 2.64455C10.4432 1.81043 11.0759 1.16272 11.8741 0.701423C12.6724 0.233808 13.5728 0 14.5755 0C15.5878 0 16.481 0.230648 17.2549 0.691944C18.0336 1.15324 18.6469 1.78831 19.0947 2.59716C19.5425 3.39968 19.7761 4.32227 19.7956 5.36493H17.6199Z" fill="#171717"/>
</svg>
